<svg xmlns="http://www.w3.org/2000/svg" viewBox="0 0 100 100" width="500" height="500" class="illustration"><defs><style>.cls-1,.cls-5{fill:#231f20;}.cls-2{fill:#ffd44d;}.cls-2,.cls-4,.cls-5{stroke:#231f20;stroke-linejoin:bevel;stroke-width:1.5px;}.cls-3{fill:#fff;}.cls-4{fill:none;}</style></defs><g id="Layer_2" data-name="Layer 2"><path class="cls-1" d="M78.78,54.88l-6.49-2.6A2.7,2.7,0,0,1,71,51.21a2.74,2.74,0,0,1,1.25-1.06l6.43-2.75c-.06-.31,0-3,0-3A29.12,29.12,0,0,0,73.81,33.1l-6.43,2.75a2.74,2.74,0,0,1-3.45-1.1l2.39-6a26.92,26.92,0,0,1,0-3,29,29,0,0,0-11.44-4.58l-2.6,6.49a2.76,2.76,0,0,1-5.11.06l-2.75-6.43A29.12,29.12,0,0,0,33.1,26.19a26.92,26.92,0,0,1,0,3l2.56,6a2.73,2.73,0,0,1-3.37,1.12l-6.49-2.6a29,29,0,0,0-4.58,11.44s.05,2.67,0,3l6.49,2.6A2.7,2.7,0,0,1,29,51.77a2.74,2.74,0,0,1-1.25,1.06l-6.43,2.75c.06.3,0,3,0,3a29.12,29.12,0,0,0,4.85,11.32l6.43-2.75a2.74,2.74,0,0,1,3.45,1.1l-2.39,6a13.08,13.08,0,0,1,0,2c.11.07,0,1,0,1a29,29,0,0,0,11.44,4.58l2.6-6.49a2.76,2.76,0,0,1,5.11-.06l2.75,6.43A29.12,29.12,0,0,0,66.9,76.79a29.61,29.61,0,0,1,0-3l-2.56-6a2.73,2.73,0,0,1,3.37-1.12l6.49,2.6a29,29,0,0,0,4.58-11.44S78.73,55.19,78.78,54.88Z"></path><path class="cls-2" d="M26.19,66.9l6.43-2.75a2.76,2.76,0,0,1,3.66,3.56l-2.6,6.49a29,29,0,0,0,11.44,4.58l2.6-6.49a2.76,2.76,0,0,1,5.11-.06l2.75,6.43A29.12,29.12,0,0,0,66.9,73.81l-2.75-6.43a2.76,2.76,0,0,1,3.56-3.66l6.49,2.6a29,29,0,0,0,4.58-11.44l-6.49-2.6a2.76,2.76,0,0,1-.06-5.11l6.43-2.75A29.12,29.12,0,0,0,73.81,33.1l-6.43,2.75a2.76,2.76,0,0,1-3.66-3.56l2.6-6.49a29,29,0,0,0-11.44-4.58l-2.6,6.49a2.76,2.76,0,0,1-5.11.06l-2.75-6.43A29.12,29.12,0,0,0,33.1,26.19l2.75,6.43a2.76,2.76,0,0,1-3.56,3.66l-6.49-2.6a29,29,0,0,0-4.58,11.44l6.49,2.6a2.76,2.76,0,0,1,.06,5.11l-6.43,2.75A29.12,29.12,0,0,0,26.19,66.9Z"></path><path class="cls-1" d="M62.38,52.41a12.8,12.8,0,0,0-.78-2.49,12.61,12.61,0,0,0-24,2.56,12.62,12.62,0,1,1,24.76-.07Z"></path><path class="cls-3" d="M62.38,52.41A12.61,12.61,0,0,1,38.4,55a12.8,12.8,0,0,1-.78-2.49,12.61,12.61,0,0,1,24-2.56A12.8,12.8,0,0,1,62.38,52.41Z"></path><circle class="cls-4" cx="50" cy="50" r="12.62"></circle><circle class="cls-5" cx="50" cy="51.49" r="6.96"></circle><circle class="cls-2" cx="50" cy="50" r="6.96"></circle></g></svg>